<svg xmlns="http://www.w3.org/2000/svg" viewBox="0 0 24 24">
  <defs>
    <style>.cls-1,.cls-6{fill:#5e60ce;}.cls-2{fill:#9eff5e;}.cls-3{fill:none;}.cls-4,.cls-5{fill:#f6ae2d;}.cls-5,.cls-7{opacity:0.7;}.cls-6{opacity:0.5;}.cls-7,.cls-8{fill:#7400b8;}</style>
  </defs>
  <g id="Camada_2" data-name="Camada 2">
    <g id="Camada_2-2" data-name="Camada 2">
      <g id="acco_24x24" data-name="acco 24x24">
        <path class="cls-1" d="M1.9,5.53s0,0,0,0c7.11,1,6.39,13,20.29,12.81l.14-.22,0,0C10.46,13.69,13.49,2.49,1.9,5.53Z"/>
        <path class="cls-2" d="M23.91,13.43c0,.05,0,.09,0,.14"/>
        <path class="cls-3" d="M5.06,2.21A11.9,11.9,0,0,0,1.9,5.53c11.59-3,8.56,8.16,20.36,12.59l0,0a12.08,12.08,0,0,0,1.59-4.58C15,17.18,14.49,4.88,5.06,2.21Z"/>
        <path class="cls-4" d="M5.24,2.08l-.18.13c9.43,2.67,9.93,15,18.84,11.36,0-.05,0-.09,0-.14C18.23,11.36,17.47,2.28,5.24,2.08Z"/>
        <path class="cls-5" d="M23.91,13.43A11.32,11.32,0,0,0,24,12,12,12,0,0,0,5.24,2.08C17.47,2.28,18.23,11.36,23.91,13.43Z"/>
        <path class="cls-6" d="M19,21.76a12.09,12.09,0,0,0,3.18-3.39C8.27,18.57,9,6.56,1.88,5.56A11.92,11.92,0,0,0,.15,10.08C8.25,6.76,13.33,20.52,19,21.76Z"/>
        <path class="cls-7" d="M.15,10.08A9.92,9.92,0,0,0,0,11.19H0c5.29.9,8.67,12.12,18.28,11l.68-.45C13.33,20.52,8.25,6.76.15,10.08Z"/>
        <path class="cls-8" d="M12,24a12,12,0,0,0,6.31-1.79C8.7,23.32,5.32,12.1,0,11.2c0,.26,0,.53,0,.8A12,12,0,0,0,12,24Z"/>
      </g>
    </g>
  </g>
</svg>